<svg width="100" height="106" fill="none" xmlns="http://www.w3.org/2000/svg"><path d="M57.64 45h-3.392V33.17H41.346V45H37.97V19.406h3.375V30.41h12.902V19.406h3.393V45z" fill="#fff"/><path stroke="#fff" stroke-width="3" d="M20.5 1.5h57v57h-57z"/><path d="M15.094 88h-2.262v-7.887H4.23V88H1.98V70.937h2.25v7.336h8.602v-7.335h2.262V88zm17.12-7.98c0 1.671-.28 3.132-.843 4.382-.562 1.242-1.36 2.192-2.39 2.848-1.032.656-2.235.984-3.61.984-1.344 0-2.535-.328-3.574-.984-1.04-.664-1.848-1.606-2.426-2.824-.57-1.227-.863-2.645-.879-4.254v-1.23c0-1.641.285-3.09.856-4.348.57-1.258 1.375-2.219 2.414-2.883 1.047-.672 2.242-1.008 3.586-1.008 1.367 0 2.57.332 3.609.996 1.047.657 1.852 1.614 2.414 2.871.563 1.25.844 2.707.844 4.371v1.078zm-2.237-1.102c0-2.024-.407-3.574-1.22-4.652-.812-1.086-1.948-1.63-3.41-1.63-1.421 0-2.542.544-3.363 1.63-.812 1.078-1.23 2.578-1.254 4.5v1.253c0 1.962.41 3.504 1.23 4.63.83 1.117 1.966 1.675 3.411 1.675 1.453 0 2.578-.527 3.375-1.582.797-1.062 1.207-2.582 1.23-4.558v-1.266zm18.738 1.101c0 1.672-.281 3.133-.844 4.383-.562 1.242-1.36 2.192-2.39 2.848-1.032.656-2.235.984-3.61.984-1.344 0-2.535-.328-3.574-.984-1.04-.664-1.848-1.606-2.426-2.824-.57-1.227-.863-2.645-.879-4.254v-1.23c0-1.641.285-3.09.856-4.348.57-1.258 1.375-2.219 2.414-2.883 1.047-.672 2.242-1.008 3.586-1.008 1.367 0 2.57.332 3.609.996 1.047.657 1.852 1.614 2.414 2.871.563 1.25.844 2.707.844 4.371v1.078zm-2.238-1.101c0-2.024-.407-3.574-1.22-4.652-.812-1.086-1.948-1.63-3.41-1.63-1.421 0-2.542.544-3.363 1.63-.812 1.078-1.23 2.578-1.254 4.5v1.253c0 1.962.41 3.504 1.23 4.63.83 1.117 1.966 1.675 3.411 1.675 1.453 0 2.578-.527 3.375-1.582.797-1.062 1.207-2.582 1.23-4.558v-1.266zm9.949 1.148l-2.086 2.168V88h-2.25V70.937h2.25v8.438l7.582-8.438h2.719l-6.715 7.536L65.168 88h-2.695l-6.047-7.934zm20.133 3.48H69.41L67.805 88h-2.32L72 70.937h1.969L80.496 88h-2.308l-1.63-4.453zm-6.47-1.85h5.802l-2.907-7.981-2.894 7.98zM95.907 88h-2.262v-7.887h-8.601V88h-2.25V70.937h2.25v7.336h8.601v-7.335h2.262V88z" fill="#fff"/><path stroke="#fff" d="M0 92.5h100"/></svg>