<svg viewBox="0 0 513.64 513.64" xmlns="http://www.w3.org/2000/svg" xmlns:xlink="http://www.w3.org/1999/xlink"><style>:root&gt;svg{display:none}:root&gt;svg:target{display:block}</style><svg viewBox="0 0 477.867 477.867" id="calendar" xmlns="http://www.w3.org/2000/svg"><path d="M119.467 0C110.041 0 102.4 7.641 102.4 17.067V51.2h34.133V17.067C136.533 7.641 128.892 0 119.467 0zM358.4 0c-9.426 0-17.067 7.641-17.067 17.067V51.2h34.133V17.067C375.467 7.641 367.826 0 358.4 0zm68.267 51.2h-51.2v68.267c0 9.426-7.641 17.067-17.067 17.067s-17.067-7.641-17.067-17.067V51.2h-204.8v68.267c0 9.426-7.641 17.067-17.067 17.067s-17.067-7.641-17.067-17.067V51.2H51.2C22.923 51.2 0 74.123 0 102.4v324.267c0 28.277 22.923 51.2 51.2 51.2h375.467c28.277 0 51.2-22.923 51.2-51.2V102.4c0-28.277-22.923-51.2-51.2-51.2zm17.066 375.467c0 9.426-7.641 17.067-17.067 17.067H51.2c-9.426 0-17.067-7.641-17.067-17.067V204.8h409.6v221.867z"/><path d="M136.533 238.933H102.4c-9.426 0-17.067 7.641-17.067 17.067s7.641 17.067 17.067 17.067h34.133c9.426 0 17.067-7.641 17.067-17.067s-7.641-17.067-17.067-17.067zm119.467 0h-34.133c-9.426 0-17.067 7.641-17.067 17.067s7.641 17.067 17.067 17.067H256c9.426 0 17.067-7.641 17.067-17.067s-7.641-17.067-17.067-17.067zm119.467 0h-34.133c-9.426 0-17.067 7.641-17.067 17.067s7.641 17.067 17.067 17.067h34.133c9.426 0 17.067-7.641 17.067-17.067s-7.642-17.067-17.067-17.067zM136.533 307.2H102.4c-9.426 0-17.067 7.641-17.067 17.067s7.641 17.067 17.067 17.067h34.133c9.426 0 17.067-7.641 17.067-17.067s-7.641-17.067-17.067-17.067zm119.467 0h-34.133c-9.426 0-17.067 7.641-17.067 17.067s7.641 17.067 17.067 17.067H256c9.426 0 17.067-7.641 17.067-17.067S265.426 307.2 256 307.2zm119.467 0h-34.133c-9.426 0-17.067 7.641-17.067 17.067s7.641 17.067 17.067 17.067h34.133c9.426 0 17.067-7.641 17.067-17.067-.001-9.426-7.642-17.067-17.067-17.067zm-238.934 68.267H102.4c-9.426 0-17.067 7.641-17.067 17.067S92.974 409.6 102.4 409.6h34.133c9.426 0 17.067-7.641 17.067-17.067s-7.641-17.066-17.067-17.066zm119.467 0h-34.133c-9.426 0-17.067 7.641-17.067 17.067s7.641 17.067 17.067 17.067H256c9.426 0 17.067-7.641 17.067-17.067s-7.641-17.067-17.067-17.067zm119.467 0h-34.133c-9.426 0-17.067 7.641-17.067 17.067s7.641 17.067 17.067 17.067h34.133c9.426 0 17.067-7.641 17.067-17.067s-7.642-17.067-17.067-17.067z"/></svg><svg viewBox="0 0 512 512" id="clock" xmlns="http://www.w3.org/2000/svg"><path d="M256 0C114.836 0 0 114.836 0 256s114.836 256 256 256 256-114.836 256-256S397.164 0 256 0zm121.75 388.414a21.277 21.277 0 01-15.082 6.254 21.27 21.27 0 01-15.082-6.254L240.918 281.75a21.237 21.237 0 01-6.25-15.082V128c0-11.797 9.555-21.332 21.332-21.332s21.332 9.535 21.332 21.332v129.836L377.75 358.25c8.34 8.344 8.34 21.824 0 30.164zm0 0"/></svg><svg viewBox="0 0 512 512" id="facebook" xmlns="http://www.w3.org/2000/svg"><path d="M512 256C512 114.6 397.4 0 256 0S0 114.6 0 256s114.6 256 256 256c1.5 0 3 0 4.5-.1V312.7h-55v-64.1h55v-47.2c0-54.7 33.4-84.5 82.2-84.5 23.4 0 43.5 1.7 49.3 2.5v57.2h-33.6c-26.5 0-31.7 12.6-31.7 31.1v40.8h63.5l-8.3 64.1h-55.2v189.5C433.7 471.4 512 372.9 512 256z"/></svg><svg viewBox="0 0 455 455" id="foursquare" xmlns="http://www.w3.org/2000/svg"><g fill-rule="evenodd" clip-rule="evenodd"><path d="M292.046 105.179H160.965c-8.299 0-11.128 2.806-11.128 11.039 0 68.046 0 136.092.011 204.152 0 1.097-.313 2.277.629 3.69.54-.595.899-.954 1.212-1.347 11.812-14.772 23.58-29.582 35.472-44.299 6.886-8.523 13.437-17.343 20.763-25.519 2.455-2.748 5.531-4.063 9.132-4.207 5.416-.224 10.847-.451 16.277-.482 11.395-.081 22.793 0 34.179-.046 4.667-.023 7.932-2.332 8.816-6.484a2608.587 2608.587 0 007.561-37.164c.695-3.535-.313-6.653-3.42-8.807-1.895-1.313-4.083-1.456-6.306-1.456-17.667.02-35.334.043-53.004-.012-8.334-.023-14.155-5.913-14.29-14.235-.023-1.671-.011-3.343 0-5.025.012-10.557 5.428-15.953 16.065-15.964 20.585-.012 41.178.011 61.774-.012 5.732-.012 9.109-2.602 10.287-8.075 2.401-11.24 4.779-22.492 6.99-33.766 1.571-8.021-1.818-11.981-9.939-11.981z"/><path d="M0 0v455h455V0H0zm336.658 120.727c-9.287 45.006-18.655 90-28.022 134.983-.606 2.86-1.301 5.72-2.197 8.492-4.308 13.27-12.845 19.574-26.845 19.666-15.884.089-31.767.089-47.654-.034-2.984-.023-5.114.864-7.044 3.13-11.992 14.066-24.062 28.066-36.109 42.088-14.37 16.725-28.694 33.461-43.122 50.121-4.566 5.272-13.483 7.28-20.237 4.724-7.099-2.694-10.106-8.337-10.757-15.536-.101-1.146-.066-2.3-.066-3.446 0-88.619-.023-177.238.023-265.86 0-11.329 4.621-20.18 14.784-25.756 3.254-1.795 6.909-2.298 10.41-3.297h178.137c2.335.528 4.701.93 6.99 1.625 8.805 2.659 13.977 9.301 15.111 18.442 1.288 10.521-1.314 20.552-3.402 30.658z"/></g></svg><svg viewBox="0 0 512 512" id="google-plus" xmlns="http://www.w3.org/2000/svg"><path d="M448 224v-64h-32v64h-64v32h64v64h32v-64h64v-32zm-288 0v64h90.528c-13.216 37.248-48.8 64-90.528 64-52.928 0-96-43.072-96-96s43.072-96 96-96c22.944 0 45.024 8.224 62.176 23.168l42.048-48.256C235.424 109.824 198.432 96 160 96 71.776 96 0 167.776 0 256s71.776 160 160 160 160-71.776 160-160v-32H160z"/></svg><svg viewBox="0 0 80.13 80.13" id="group" xmlns="http://www.w3.org/2000/svg"><path d="M48.355 17.922c3.705 2.323 6.303 6.254 6.776 10.817a11.69 11.69 0 004.966 1.112c6.491 0 11.752-5.261 11.752-11.751 0-6.491-5.261-11.752-11.752-11.752-6.429.002-11.644 5.169-11.742 11.574zm-7.699 24.062c6.491 0 11.752-5.262 11.752-11.752s-5.262-11.751-11.752-11.751c-6.49 0-11.754 5.262-11.754 11.752s5.264 11.751 11.754 11.751zm4.985.801h-9.972c-8.297 0-15.047 6.751-15.047 15.048v12.195l.031.191.84.263c7.918 2.474 14.797 3.299 20.459 3.299 11.059 0 17.469-3.153 17.864-3.354l.785-.397h.084V57.833c.003-8.297-6.747-15.048-15.044-15.048zm19.443-12.132h-9.895a14.483 14.483 0 01-4.47 10.088c7.375 2.193 12.771 9.032 12.771 17.11v3.758c9.77-.358 15.4-3.127 15.771-3.313l.785-.398h.084V45.699c0-8.296-6.75-15.046-15.046-15.046zm-45.049-.8c2.299 0 4.438-.671 6.25-1.814a14.544 14.544 0 015.467-9.276c.012-.22.033-.438.033-.66 0-6.491-5.262-11.752-11.75-11.752-6.492 0-11.752 5.261-11.752 11.752 0 6.488 5.26 11.75 11.752 11.75zm10.554 10.888a14.492 14.492 0 01-4.467-10.032c-.367-.027-.73-.056-1.104-.056h-9.971C6.75 30.653 0 37.403 0 45.699v12.197l.031.188.84.265c6.352 1.983 12.021 2.897 16.945 3.185v-3.683c.002-8.078 5.396-14.915 12.773-17.11z"/></svg><svg viewBox="0 0 512 512" id="instagram" xmlns="http://www.w3.org/2000/svg"><path d="M352 0H160C71.648 0 0 71.648 0 160v192c0 88.352 71.648 160 160 160h192c88.352 0 160-71.648 160-160V160C512 71.648 440.352 0 352 0zm112 352c0 61.76-50.24 112-112 112H160c-61.76 0-112-50.24-112-112V160C48 98.24 98.24 48 160 48h192c61.76 0 112 50.24 112 112v192z"/><path d="M256 128c-70.688 0-128 57.312-128 128s57.312 128 128 128 128-57.312 128-128-57.312-128-128-128zm0 208c-44.096 0-80-35.904-80-80 0-44.128 35.904-80 80-80s80 35.872 80 80c0 44.096-35.904 80-80 80z"/><circle cx="393.6" cy="118.4" r="17.056"/></svg><svg fill="none" viewBox="0 0 82 5" id="line" xmlns="http://www.w3.org/2000/svg"><path stroke="#fff" d="M0 2.5h80"/><path d="M77 2.5L80.75.335v4.33L77 2.5z" fill="#fff"/></svg><svg viewBox="0 0 100 106" id="logo" xmlns="http://www.w3.org/2000/svg"><path d="M57.64 45h-3.392V33.17H41.346V45H37.97V19.406h3.375V30.41h12.902V19.406h3.393V45z"/><path stroke="#000" stroke-width="3" d="M20.5 1.5h57v57h-57z"/><path d="M15.094 88h-2.262v-7.887H4.23V88H1.98V70.937h2.25v7.336h8.602v-7.335h2.262V88zm17.12-7.98c0 1.671-.28 3.132-.843 4.382-.562 1.242-1.36 2.192-2.39 2.848-1.032.656-2.235.984-3.61.984-1.344 0-2.535-.328-3.574-.984-1.04-.664-1.848-1.606-2.426-2.824-.57-1.227-.863-2.645-.879-4.254v-1.23c0-1.641.285-3.09.856-4.348.57-1.258 1.375-2.219 2.414-2.883 1.047-.672 2.242-1.008 3.586-1.008 1.367 0 2.57.332 3.609.996 1.047.657 1.852 1.614 2.414 2.871.563 1.25.844 2.707.844 4.371v1.078zm-2.237-1.102c0-2.024-.407-3.574-1.22-4.652-.812-1.086-1.948-1.63-3.41-1.63-1.421 0-2.542.544-3.363 1.63-.812 1.078-1.23 2.578-1.254 4.5v1.253c0 1.962.41 3.504 1.23 4.63.83 1.117 1.966 1.675 3.411 1.675 1.453 0 2.578-.527 3.375-1.582.797-1.062 1.207-2.582 1.23-4.558v-1.266zm18.738 1.101c0 1.672-.281 3.133-.844 4.383-.562 1.242-1.36 2.192-2.39 2.848-1.032.656-2.235.984-3.61.984-1.344 0-2.535-.328-3.574-.984-1.04-.664-1.848-1.606-2.426-2.824-.57-1.227-.863-2.645-.879-4.254v-1.23c0-1.641.285-3.09.856-4.348.57-1.258 1.375-2.219 2.414-2.883 1.047-.672 2.242-1.008 3.586-1.008 1.367 0 2.57.332 3.609.996 1.047.657 1.852 1.614 2.414 2.871.563 1.25.844 2.707.844 4.371v1.078zm-2.238-1.101c0-2.024-.407-3.574-1.22-4.652-.812-1.086-1.948-1.63-3.41-1.63-1.421 0-2.542.544-3.363 1.63-.812 1.078-1.23 2.578-1.254 4.5v1.253c0 1.962.41 3.504 1.23 4.63.83 1.117 1.966 1.675 3.411 1.675 1.453 0 2.578-.527 3.375-1.582.797-1.062 1.207-2.582 1.23-4.558v-1.266zm9.949 1.148l-2.086 2.168V88h-2.25V70.937h2.25v8.438l7.582-8.438h2.719l-6.715 7.536L65.168 88h-2.695l-6.047-7.934zm20.133 3.48H69.41L67.805 88h-2.32L72 70.937h1.969L80.496 88h-2.308l-1.63-4.453zm-6.47-1.85h5.802l-2.907-7.981-2.894 7.98zM95.907 88h-2.262v-7.887h-8.601V88h-2.25V70.937h2.25v7.336h8.601v-7.335h2.262V88z"/><path stroke="#000" d="M0 92.5h100"/><path d="M30.031 102h-.754v-2.629H26.41V102h-.75v-5.688h.75v2.446h2.867v-2.445h.754V102zm5.707-2.66c0 .557-.093 1.044-.281 1.461-.188.414-.453.73-.797.949-.344.219-.745.328-1.203.328-.448 0-.845-.109-1.191-.328a2.208 2.208 0 01-.809-.941c-.19-.409-.288-.882-.293-1.418v-.41c0-.547.095-1.03.285-1.45.19-.419.459-.74.805-.96a2.165 2.165 0 011.195-.337c.456 0 .857.111 1.203.332.35.22.617.538.805.957.188.417.281.903.281 1.458v.359zm-.746-.367c0-.675-.135-1.192-.406-1.551-.27-.362-.65-.543-1.137-.543-.474 0-.847.18-1.12.543-.272.36-.411.86-.419 1.5v.418c0 .653.137 1.168.41 1.543.276.372.655.558 1.137.558.484 0 .86-.175 1.125-.527.266-.354.402-.861.41-1.52v-.421zm6.246.367c0 .557-.093 1.044-.281 1.461-.188.414-.453.73-.797.949-.344.219-.745.328-1.203.328-.448 0-.845-.109-1.191-.328a2.208 2.208 0 01-.809-.941c-.19-.409-.288-.882-.293-1.418v-.41c0-.547.095-1.03.285-1.45.19-.419.459-.74.805-.96a2.165 2.165 0 011.195-.337c.456 0 .857.111 1.203.332.35.22.617.538.805.957.188.417.281.903.281 1.458v.359zm-.746-.367c0-.675-.135-1.192-.406-1.551-.27-.362-.65-.543-1.137-.543-.474 0-.847.18-1.12.543-.272.36-.411.86-.419 1.5v.418c0 .653.137 1.168.41 1.543.276.372.655.558 1.137.558.484 0 .86-.175 1.125-.527.266-.354.402-.861.41-1.52v-.421zm3.317.383l-.696.722V102h-.75v-5.688h.75v2.813l2.528-2.813h.906l-2.238 2.512L46.723 102h-.899l-2.015-2.644zm6.71 1.16h-2.382L47.602 102h-.774L49 96.312h.656L51.832 102h-.77l-.542-1.484zm-2.156-.618h1.934l-.969-2.66-.965 2.66zM56.97 102h-.754v-2.629h-2.867V102h-.75v-5.688h.75v2.446h2.867v-2.445h.754V102zm3.316 0v-5.688h1.86c.617 0 1.08.128 1.39.383.313.256.469.633.469 1.133 0 .266-.076.501-.227.707-.15.203-.356.36-.617.473.307.086.55.25.727.492.18.24.27.526.27.859 0 .511-.166.912-.497 1.203-.33.292-.798.438-1.402.438h-1.973zm.75-2.66v2.047h1.238c.35 0 .624-.09.825-.27.203-.182.304-.432.304-.75 0-.685-.372-1.027-1.117-1.027h-1.25zm0-.602h1.133c.328 0 .59-.082.785-.246.198-.164.297-.386.297-.668 0-.312-.091-.539-.273-.68-.183-.143-.46-.214-.832-.214h-1.11v1.808zm7.375 1.778h-2.383L65.492 102h-.773l2.172-5.688h.656L69.723 102h-.77l-.543-1.484zm-2.156-.618h1.933l-.968-2.66-.965 2.66zm6.32-.199h-1.336V102h-.754v-5.688h1.883c.64 0 1.133.146 1.477.438.346.292.52.716.52 1.273 0 .355-.097.663-.29.926-.19.263-.456.46-.797.59l1.336 2.414V102h-.804l-1.235-2.3zm-1.336-.613h1.153c.372 0 .668-.096.886-.29.222-.192.332-.45.332-.773 0-.351-.105-.62-.316-.808-.208-.188-.51-.283-.906-.285h-1.149v2.156z"/></svg><svg viewBox="-42 0 512 512.002" id="name" xmlns="http://www.w3.org/2000/svg"><path d="M210.352 246.633c33.882 0 63.222-12.153 87.195-36.13 23.973-23.972 36.125-53.304 36.125-87.19 0-33.876-12.152-63.211-36.129-87.192C273.566 12.152 244.23 0 210.352 0c-33.887 0-63.22 12.152-87.192 36.125s-36.129 53.309-36.129 87.188c0 33.886 12.156 63.222 36.133 87.195 23.977 23.969 53.313 36.125 87.188 36.125zm215.777 147.07c-.692-9.976-2.09-20.86-4.149-32.351-2.078-11.579-4.753-22.524-7.957-32.528-3.308-10.34-7.808-20.55-13.37-30.336-5.774-10.156-12.555-19-20.165-26.277-7.957-7.613-17.699-13.734-28.965-18.2-11.226-4.44-23.668-6.69-36.976-6.69-5.227 0-10.281 2.144-20.043 8.5a2711.03 2711.03 0 01-20.879 13.46c-6.707 4.274-15.793 8.278-27.016 11.903-10.949 3.543-22.066 5.34-33.039 5.34-10.972 0-22.086-1.797-33.047-5.34-11.21-3.622-20.296-7.625-26.996-11.899a2853.13 2853.13 0 01-20.898-13.469c-9.75-6.355-14.809-8.5-20.035-8.5-13.313 0-25.75 2.254-36.973 6.7-11.258 4.457-21.004 10.578-28.969 18.199-7.605 7.281-14.39 16.12-20.156 26.273-5.558 9.785-10.058 19.992-13.371 30.34-3.2 10.004-5.875 20.945-7.953 32.524-2.059 11.476-3.457 22.363-4.149 32.363A438.821 438.821 0 000 423.949c0 26.727 8.496 48.363 25.25 64.32 16.547 15.747 38.441 23.735 65.066 23.735h246.532c26.625 0 48.511-7.984 65.062-23.734 16.758-15.946 25.254-37.586 25.254-64.325-.004-10.316-.351-20.492-1.035-30.242zm0 0"/></svg><svg viewBox="0 0 513.64 513.64" id="phone" xmlns="http://www.w3.org/2000/svg"><path d="M499.66 376.96l-71.68-71.68c-25.6-25.6-69.12-15.359-79.36 17.92-7.68 23.041-33.28 35.841-56.32 30.72-51.2-12.8-120.32-79.36-133.12-133.12-7.68-23.041 7.68-48.641 30.72-56.32 33.28-10.24 43.52-53.76 17.92-79.36l-71.68-71.68c-20.48-17.92-51.2-17.92-69.12 0L18.38 62.08c-48.64 51.2 5.12 186.88 125.44 307.2s256 176.641 307.2 125.44l48.64-48.64c17.921-20.48 17.921-51.2 0-69.12z"/></svg><svg viewBox="0 0 97.75 97.75" id="tripadvisor" xmlns="http://www.w3.org/2000/svg"><path d="M67.211 46.07c-3.291 0-5.971 2.648-5.982 5.917-.012 3.252 2.681 5.959 5.939 5.967 3.266.01 5.949-2.674 5.947-5.943-.002-3.279-2.65-5.941-5.904-5.941zm0 8.95c-1.686 0-3.043-1.332-3.039-2.983.002-1.716 1.318-3.039 3.02-3.041 1.666-.002 3.031 1.362 3.017 3.021-.02 1.655-1.361 3.003-2.998 3.003zM30.512 37.514c-7.9-.07-14.787 6.523-14.65 14.921.129 7.832 6.584 14.472 14.814 14.4 8.047-.068 14.516-6.641 14.531-14.6a14.646 14.646 0 00-14.695-14.721zm.236 23.586c-5.293.242-9.564-3.977-9.555-9.1.01-5.191 4.287-9.162 9.125-9.074 5.023-.006 9.1 4.049 9.086 9.07a9.098 9.098 0 01-8.656 9.104z"/><path d="M48.875 0C21.883 0 0 21.883 0 48.875S21.883 97.75 48.875 97.75 97.75 75.867 97.75 48.875 75.867 0 48.875 0zm28.096 67.852c-2.984 1.896-6.283 2.795-9.807 2.814-1.48.01-2.955-.189-4.4-.564-3.522-.914-6.545-2.672-9.035-5.33-.33-.35-.639-.713-.987-1.108l-3.939 5.871-3.873-5.787c-.088.045-.113.051-.131.065a.637.637 0 00-.076.082c-3.012 3.556-6.801 5.734-11.414 6.465a17.825 17.825 0 01-7.604-.428c-3.533-.971-6.537-2.834-8.963-5.586-2.371-2.688-3.846-5.812-4.398-9.363-.633-3.312.137-6.508.33-7.282.559-2.252 1.531-4.322 2.867-6.225a.718.718 0 00.082-.535c-.545-1.998-1.482-3.816-2.582-5.557-.279-.441-.613-.85-.922-1.275v-.148c.061.008.123.02.184.02 3.697.002 7.396.002 11.094-.004.162 0 .34-.066.479-.154 2.598-1.668 5.367-2.988 8.275-4.016a45.082 45.082 0 016.424-1.742 51.473 51.473 0 016.389-.838c5.238-.404 9.426.15 12.211.539 2.053.289 4.064.807 6.051 1.416a41.419 41.419 0 019.818 4.477c.213.133.5.217.752.217 3.613.016 7.227.01 10.84.014.291 0 .582.031.871.047 0 .07.01.1-.002.117-.168.258-.34.516-.508.775-1.225 1.879-2.273 3.848-2.893 6.021-.066.232-.082.428.076.658 3.219 4.621 4.243 9.693 2.899 15.162-1.181 4.795-3.929 8.533-8.108 11.182z"/><path d="M30.236 46.07c-3.209.006-5.898 2.715-5.891 5.936.008 3.26 2.695 5.941 5.963 5.949 3.248.008 5.939-2.697 5.932-5.965-.01-3.299-2.676-5.926-6.004-5.92zm.075 8.981c-1.723.002-3.051-1.328-3.051-3.061 0-1.701 1.326-3.021 3.043-3.023a3.043 3.043 0 013.057 3.035c.005 1.672-1.366 3.043-3.049 3.049zM66.902 37.57c-8.019.164-14.295 6.627-14.367 14.622 0 8.121 6.59 14.756 14.682 14.725 8.123-.029 14.682-6.477 14.676-14.688-.004-8.463-6.87-14.825-14.991-14.659zm.66 23.532a9.104 9.104 0 01-9.487-9.094c.002-5.154 4.252-9.17 9.112-9.082 5.027-.01 9.099 4.039 9.099 9.061-.001 5.04-4.003 8.935-8.724 9.115z"/><path d="M54.732 38.639c3.248-2.98 7.117-4.543 11.506-4.875-5.209-2.314-10.701-3.299-16.355-3.408-6.424-.125-12.674.822-18.643 3.326 4.463.271 8.383 1.828 11.695 4.838 3.305 3.008 5.242 6.756 5.945 11.166.724-4.358 2.608-8.073 5.852-11.047z"/></svg></svg>